<svg xmlns="http://www.w3.org/2000/svg" viewBox="0 0 64 64" role="img" aria-label="SMS Panel">
  <defs>
    <linearGradient id="bg" x1="8" y1="4" x2="56" y2="60" gradientUnits="userSpaceOnUse">
      <stop offset="0" stop-color="#151a2c"/>
      <stop offset="0.58" stop-color="#07080d"/>
      <stop offset="1" stop-color="#0f3528"/>
    </linearGradient>
    <linearGradient id="bubble" x1="18" y1="14" x2="47" y2="45" gradientUnits="userSpaceOnUse">
      <stop offset="0" stop-color="#e8fff5"/>
      <stop offset="0.42" stop-color="#4fffb0"/>
      <stop offset="1" stop-color="#00d4ff"/>
    </linearGradient>
    <filter id="glow" x="-30%" y="-30%" width="160%" height="160%">
      <feGaussianBlur stdDeviation="2.2" result="blur"/>
      <feColorMatrix in="blur" type="matrix" values="0 0 0 0 0.31 0 0 0 0 1 0 0 0 0 0.69 0 0 0 .72 0"/>
      <feMerge>
        <feMergeNode/>
        <feMergeNode in="SourceGraphic"/>
      </feMerge>
    </filter>
  </defs>

  <rect width="64" height="64" rx="16" fill="url(#bg)"/>
  <path d="M9 16C17 7 32 5 45 10" fill="none" stroke="#4fffb0" stroke-opacity=".16" stroke-width="2"/>
  <path d="M56 48C47 58 29 60 17 52" fill="none" stroke="#00d4ff" stroke-opacity=".16" stroke-width="2"/>
  <circle cx="48" cy="16" r="4" fill="#4fffb0" filter="url(#glow)"/>

  <g filter="url(#glow)">
    <path
      d="M18 20.5C18 16.9 20.9 14 24.5 14h17C45.1 14 48 16.9 48 20.5v13C48 37.1 45.1 40 41.5 40H32l-9.8 8.1c-1.1.9-2.7.1-2.7-1.3V40.5c-1-1.1-1.5-2.5-1.5-4v-16Z"
      fill="url(#bubble)"/>
    <path d="M25 24h16M25 31h11" fill="none" stroke="#07110d" stroke-opacity=".72" stroke-width="3.2" stroke-linecap="round"/>
  </g>

  <path d="M16 50h32" stroke="#4fffb0" stroke-opacity=".18" stroke-width="2" stroke-linecap="round"/>
</svg>
